<svg width="25" height="32" viewBox="0 0 25 32" fill="none" xmlns="http://www.w3.org/2000/svg">
<path d="M22.0312 20C22.3438 20 22.5 20.1562 22.5 20.4688V21.4062C22.5 21.7188 22.3438 21.875 22.0312 21.875H21.2891L20.2344 29.6484C20.1562 30.0911 19.9349 30.4688 19.5703 30.7812C19.2318 31.0938 18.8281 31.25 18.3594 31.25H4.14062C3.67188 31.25 3.25521 31.0938 2.89062 30.7812C2.55208 30.4688 2.34375 30.0911 2.26562 29.6484L1.21094 21.875H0.46875C0.15625 21.875 0 21.7188 0 21.4062V20.4688C0 20.1562 0.15625 20 0.46875 20H3.32031L8.35938 14.0625C8.51562 13.8802 8.72396 13.776 8.98438 13.75C9.24479 13.724 9.46615 13.8021 9.64844 13.9844C9.85677 14.1406 9.97396 14.349 10 14.6094C10.026 14.8698 9.94792 15.1042 9.76562 15.3125L5.78125 20H16.7188L12.7344 15.3125C12.5521 15.1042 12.474 14.8698 12.5 14.6094C12.526 14.349 12.6302 14.1406 12.8125 13.9844C13.0208 13.8021 13.2552 13.724 13.5156 13.75C13.776 13.776 13.9844 13.8802 14.1406 14.0625L19.1797 20H22.0312ZM18.3594 29.375L19.4141 21.875H3.08594L4.14062 29.375H18.3594ZM12.1875 24.0625V27.1875C12.1875 27.4479 12.0964 27.6693 11.9141 27.8516C11.7318 28.0339 11.5104 28.125 11.25 28.125C10.9896 28.125 10.7682 28.0339 10.5859 27.8516C10.4036 27.6693 10.3125 27.4479 10.3125 27.1875V24.0625C10.3125 23.8021 10.4036 23.5807 10.5859 23.3984C10.7682 23.2161 10.9896 23.125 11.25 23.125C11.5104 23.125 11.7318 23.2161 11.9141 23.3984C12.0964 23.5807 12.1875 23.8021 12.1875 24.0625ZM16.5625 24.0625V27.1875C16.5625 27.4479 16.4714 27.6693 16.2891 27.8516C16.1068 28.0339 15.8854 28.125 15.625 28.125C15.3646 28.125 15.1432 28.0339 14.9609 27.8516C14.7786 27.6693 14.6875 27.4479 14.6875 27.1875V24.0625C14.6875 23.8021 14.7786 23.5807 14.9609 23.3984C15.1432 23.2161 15.3646 23.125 15.625 23.125C15.8854 23.125 16.1068 23.2161 16.2891 23.3984C16.4714 23.5807 16.5625 23.8021 16.5625 24.0625ZM7.8125 24.0625V27.1875C7.8125 27.4479 7.72135 27.6693 7.53906 27.8516C7.35677 28.0339 7.13542 28.125 6.875 28.125C6.61458 28.125 6.39323 28.0339 6.21094 27.8516C6.02865 27.6693 5.9375 27.4479 5.9375 27.1875V24.0625C5.9375 23.8021 6.02865 23.5807 6.21094 23.3984C6.39323 23.2161 6.61458 23.125 6.875 23.125C7.13542 23.125 7.35677 23.2161 7.53906 23.3984C7.72135 23.5807 7.8125 23.8021 7.8125 24.0625Z" fill="#485363"/>
<rect x="8" y="1" width="18" height="18" rx="9" fill="#FA4C44"/>
<rect x="8" y="1" width="18" height="18" rx="9" stroke="white" stroke-width="2"/>
<path d="M19.9766 12.6816V14H14.1406V12.875L16.9004 9.91602C17.1777 9.60742 17.3965 9.33594 17.5566 9.10156C17.7168 8.86328 17.832 8.65039 17.9023 8.46289C17.9766 8.27148 18.0137 8.08984 18.0137 7.91797C18.0137 7.66016 17.9707 7.43945 17.8848 7.25586C17.7988 7.06836 17.6719 6.92383 17.5039 6.82227C17.3398 6.7207 17.1367 6.66992 16.8945 6.66992C16.6367 6.66992 16.4141 6.73242 16.2266 6.85742C16.043 6.98242 15.9023 7.15625 15.8047 7.37891C15.7109 7.60156 15.6641 7.85352 15.6641 8.13477H13.9707C13.9707 7.62695 14.0918 7.16211 14.334 6.74023C14.5762 6.31445 14.918 5.97656 15.3594 5.72656C15.8008 5.47266 16.3242 5.3457 16.9297 5.3457C17.5273 5.3457 18.0312 5.44336 18.4414 5.63867C18.8555 5.83008 19.168 6.10742 19.3789 6.4707C19.5938 6.83008 19.7012 7.25977 19.7012 7.75977C19.7012 8.04102 19.6562 8.31641 19.5664 8.58594C19.4766 8.85156 19.3477 9.11719 19.1797 9.38281C19.0156 9.64453 18.8164 9.91016 18.582 10.1797C18.3477 10.4492 18.0879 10.7285 17.8027 11.0176L16.3203 12.6816H19.9766Z" fill="white"/>
</svg>
