<?xml version="1.0" encoding="UTF-8" standalone="no"?>
<svg
   width="17.5"
   height="14"
   viewBox="0 0 17.5 14"
   fill="none"
   version="1.1"
   id="svg1"
   xmlns="http://www.w3.org/2000/svg"
   xmlns:svg="http://www.w3.org/2000/svg">
  <defs
     id="defs1" />
  <path
     d="m 15.636612,0 c 0.381727,0 0.73623,0.10026 1.06341,0.300781 0.32718,0.18229203 0.581664,0.43750003 0.763453,0.765629 0.199938,0.30989 0.299957,0.65625 0.299957,1.03906 v 8.55863 c 0,0.5651 -0.199938,1.0481 -0.599913,1.4492 -0.381727,0.401 -0.854298,0.6198 -1.417814,0.6562 -2.217764,0.1094 -3.926459,0.4558 -5.126286,1.0391 C 10.401332,13.9362 10.165007,14 9.910512,14 H 8.165419 C 7.910925,14 7.674609,13.9362 7.456473,13.8086 6.256726,13.2253 4.547991,12.8789 2.330266,12.7695 1.766741,12.7331 1.285025,12.5143 0.885109,12.1133 0.503369,11.7122 0.3125,11.2292 0.3125,10.6641 V 2.10547 C 0.3125,1.52214 0.521547,1.02995 0.939643,0.62890603 1.357741,0.209635 1.857635,0 2.43933,0 2.730182,0 3.17554,0.0273438 3.775423,0.0820312 4.393475,0.136719 5.247843,0.291667 6.338526,0.54687503 7.429209,0.80208303 8.329019,1.13932 9.037966,1.55859 c 0.436273,-0.2552 0.954347,-0.48307 1.55423,-0.68358997 0.599913,-0.200521 1.163428,-0.355469 1.690546,-0.464844 C 12.80996,0.300781 13.328003,0.21875 13.836972,0.164062 14.36409,0.0911458 14.764065,0.0455729 15.036699,0.0273438 15.309432,0.0091146 15.50937,0 15.636612,0 Z M 8.383556,11.9766 V 6.125 3.22656 C 8.383556,2.84375 8.210862,2.57031 7.865483,2.40625 7.011115,2.02344 6.029495,1.75 4.920633,1.58594 3.811771,1.40365 2.984676,1.3125 2.43933,1.3125 c -0.218137,0 -0.409,0.08203 -0.57261,0.24609 -0.1636,0.14584 -0.2454,0.32813 -0.2454,0.54688 v 8.55863 c 0,0.1458 0.02726,0.2825 0.0818,0.4101 0.07272,0.1094 0.172694,0.2005 0.299936,0.2735 0.127253,0.0546 0.254495,0.0911 0.381737,0.1093 2.272261,0.1094 4.080975,0.4193 5.426153,0.9297 0.07272,0.0365 0.136337,0.0456 0.190873,0.0274 0.07271,-0.0183 0.136337,-0.0456 0.190864,-0.0821 0.05454,-0.0364 0.09998,-0.082 0.136336,-0.1367 0.03636,-0.0729 0.05454,-0.1458 0.05454,-0.2187 z m 8.071056,-1.3125 V 2.10547 c 0,-0.21875 -0.08177,-0.40104 -0.24541,-0.54688 -0.16364,-0.16406 -0.354503,-0.24609 -0.57259,-0.24609 -0.545367,0 -1.372441,0.09115 -2.481323,0.27344 C 12.046407,1.75 11.064867,2.02344 10.210449,2.40625 9.86507,2.57031 9.692376,2.84375 9.692376,3.22656 V 6.125 11.9766 c 0,0.1458 0.06362,0.2643 0.190873,0.3554 0.127242,0.0912 0.254485,0.1094 0.381737,0.0547 1.345148,-0.5104 3.153862,-0.8203 5.426173,-0.9297 0.218086,-0.0182 0.399875,-0.1002 0.545366,-0.2461 0.145391,-0.1458 0.218087,-0.3281 0.218087,-0.5468 z"
     fill="#ffffff"
     id="path1"
     style="stroke-width:0.998597" />
</svg>
