<svg width="18" height="15" viewBox="0 0 18 15" fill="none" xmlns="http://www.w3.org/2000/svg">
<path d="M17.0312 2.1875H0.46875C0.15625 2.1875 0 2.03125 0 1.71875V0.46875C0 0.15625 0.15625 0 0.46875 0H17.0312C17.3438 0 17.5 0.15625 17.5 0.46875V1.71875C17.5 2.03125 17.3438 2.1875 17.0312 2.1875ZM17.0312 8.4375H0.46875C0.15625 8.4375 0 8.28125 0 7.96875V6.71875C0 6.40625 0.15625 6.25 0.46875 6.25H17.0312C17.3438 6.25 17.5 6.40625 17.5 6.71875V7.96875C17.5 8.28125 17.3438 8.4375 17.0312 8.4375ZM17.0312 14.6875H0.46875C0.15625 14.6875 0 14.5312 0 14.2188V12.9688C0 12.6562 0.15625 12.5 0.46875 12.5H17.0312C17.3438 12.5 17.5 12.6562 17.5 12.9688V14.2188C17.5 14.5312 17.3438 14.6875 17.0312 14.6875Z" fill="#485363"/>
</svg>
