<svg width="21" height="21" viewBox="0 0 21 21" fill="none" xmlns="http://www.w3.org/2000/svg">
<path d="M19.8438 18.3203C20.0781 18.5286 20.0781 18.75 19.8438 18.9844L18.9844 19.8438C18.75 20.0781 18.5286 20.0781 18.3203 19.8438L13.5938 15.1172C13.4896 15.013 13.4375 14.9089 13.4375 14.8047V14.2578C11.901 15.5859 10.1302 16.25 8.125 16.25C5.88542 16.25 3.97135 15.4557 2.38281 13.8672C0.794271 12.2786 0 10.3646 0 8.125C0 5.88542 0.794271 3.97135 2.38281 2.38281C3.97135 0.794271 5.88542 0 8.125 0C10.3646 0 12.2786 0.794271 13.8672 2.38281C15.4557 3.97135 16.25 5.88542 16.25 8.125C16.25 10.1302 15.5859 11.901 14.2578 13.4375H14.8047C14.9349 13.4375 15.0391 13.4896 15.1172 13.5938L19.8438 18.3203ZM3.71094 12.5391C4.9349 13.763 6.40625 14.375 8.125 14.375C9.84375 14.375 11.3151 13.763 12.5391 12.5391C13.763 11.3151 14.375 9.84375 14.375 8.125C14.375 6.40625 13.763 4.9349 12.5391 3.71094C11.3151 2.48698 9.84375 1.875 8.125 1.875C6.40625 1.875 4.9349 2.48698 3.71094 3.71094C2.48698 4.9349 1.875 6.40625 1.875 8.125C1.875 9.84375 2.48698 11.3151 3.71094 12.5391Z" fill="#485363"/>
</svg>
