<?xml version="1.0" encoding="UTF-8" standalone="no"?>
<svg
   width="18"
   height="17"
   viewBox="0 0 18 17"
   fill="none"
   version="1.1"
   id="svg1"
   xmlns="http://www.w3.org/2000/svg"
   xmlns:svg="http://www.w3.org/2000/svg">
  <defs
     id="defs1" />
  <path
     d="m 17.647128,4.8125 c 0.1641,0.29167 0.155,0.58333 -0.0273,0.875 -0.1641,0.29167 -0.4102,0.4375 -0.7383,0.4375 h -0.875 v 7.4375 c 0,0.1276 -0.0456,0.2279 -0.1367,0.3008 -0.0729,0.0911 -0.1732,0.1367 -0.3008,0.1367 h -0.4375 c -0.1276,0 -0.237,-0.0456 -0.3281,-0.1367 -0.0729,-0.0729 -0.1094,-0.1732 -0.1094,-0.3008 V 6.125 h -3.9375 v 6.918 c 0,0.2552 -0.0911,0.4739 -0.2734,0.6562 C 10.319028,13.8997 10.118528,14 9.8815478,14 H 2.8815479 c -0.23698,0 -0.44662,-0.1003 -0.62891,-0.3008 -0.16406,-0.1823 -0.24609,-0.401 -0.24609,-0.6562 V 6.125 h -0.875 c -0.32812596,0 -0.58333496,-0.14583 -0.76562596,-0.4375 -0.1640628,-0.29167 -0.1640628,-0.58333 0,-0.875 L 2.8815479,0.4375 C 3.0456079,0.145833 3.3008179,0 3.6471679,0 H 14.365928 c 0.3463,0 0.6016,0.145833 0.7656,0.4375 z m -8.2030802,7.875 v -2.625 H 3.3190479 v 2.625 z m 0,-3.9375 V 6.125 H 3.3190479 V 8.75 Z M 1.8971679,4.8125 H 16.115928 l -1.9961,-3.5 H 3.8932679 Z"
     fill="#ffffff"
     id="path1" />
</svg>
